# AST/ASF file generated using VICON BodyLanguage
# -----------------------------------------------
:version 1.10
:name VICON
:units
  mass 1.0
  length 0.45
  angle deg
:documentation
   .ast/.asf automatically generated from VICON data using
   VICON BodyBuilder and BodyLanguage model FoxedUp or BRILLIANT.MOD
:root
   order TX TY TZ RX RY RZ
   axis XYZ
   position 0 0 0  
   orientation 0 0 0 
:bonedata
  begin
     id 1 
     name lhipjoint
     direction 0.78388 -0.462562 0.414208 
     length 3.01181 
     axis 0 0 0  XYZ
  end
  begin
     id 2 
     name lfemur
     direction 0.34202 -0.939693 0  
     length 6.04673  
     axis 0 0 20  XYZ
    dof rx ry rz
    limits (-160.0 20.0)
           (-70.0 70.0)
           (-60.0 70.0)
  end
  begin
     id 3 
     name ltibia
     direction 0.34202 -0.939693 0   
     length 7.211   
     axis 0 0 20   XYZ
    dof rx
    limits (-10.0 170.0)
  end
  begin
     id 4 
     name lfoot
     direction 0.121887 -0.334882 0.934344   
     length 2.13567   
     axis -90 7.62852e-016 20   XYZ
    dof rx rz
    limits (-45.0 90.0)
           (-70.0 20.0)
  end
  begin
     id 5 
     name ltoes
     direction 1.53555e-011 -4.2179e-011 1   
     length 1.05957   
     axis -90 7.62852e-016 20   XYZ
    dof rx
    limits (-90.0 20.0)
  end
  begin
     id 6 
     name rhipjoint
     direction -0.769387 -0.475875 0.426129   
     length 2.92756  
     axis 0 0 0  XYZ 
  end
  begin
     id 7 
     name rfemur
     direction -0.34202 -0.939693 0   
     length 6.35468   
     axis 0 0 -20   XYZ
    dof rx ry rz
    limits (-160.0 20.0)
           (-70.0 70.0)
           (-70.0 60.0)
  end
  begin
     id 8 
     name rtibia
     direction -0.34202 -0.939693 0   
     length 7.37886   
     axis 0 0 -20   XYZ
    dof rx
    limits (-10.0 170.0)
 end
 begin
     id 9 
     name rfoot
     direction -0.101763 -0.279592 0.954711   
     length 2.21478  
     axis -90 -7.62852e-016 -20   XYZ
    dof rx rz
    limits (-45.0 90.0)
           (-20.0 70.0)
  end
  begin
     id 10 
     name rtoes
     direction -1.53494e-011 -4.21851e-011 1   
     length 1.10506   
     axis -90 -7.62852e-016 -20   XYZ
    dof rx
    limits (-90.0 20.0)
  end
  begin
     id 11 
     name lowerback
     direction 0.00747405 0.999267 0.0375481   
     length 2.13259   
     axis 0 0 0   XYZ
    dof rx ry rz
    limits (-20.0 45.0)
           (-30.0 30.0)
           (-30.0 30.0)
  end
  begin
     id 12 
     name upperback
     direction 0.00661626 0.996177 0.0871029   
     length 2.10528   
     axis 0 0 0   XYZ
    dof rx ry rz
    limits (-20.0 45.0)
           (-30.0 30.0)
           (-30.0 30.0)
  end
  begin
     id 13 
     name thorax
     direction 0.00320659 0.997679 0.0680167   
     length 2.11338   
     axis 0 0 0   XYZ
    dof rx ry rz
    limits (-20.0 45.0)
           (-30.0 30.0)
           (-30.0 30.0)
  end
  begin
     id 14 
     name lowerneck
     direction 0.0374841 0.973033 0.227602   
     length 1.42765   
     axis 0 0 0   XYZ
    dof rx ry rz
    limits (-20.0 45.0)
           (-30.0 30.0)
           (-30.0 30.0)
  end
  begin
     id 15 
     name upperneck
     direction 0.00481585 0.989155 -0.146795   
     length 1.47593   
     axis 0 0 0   XYZ
    dof rx ry rz
    limits (-20.0 45.0)
           (-30.0 30.0)
           (-30.0 30.0)
  end
  begin
     id 16
     name head
     direction -0.00292522 0.997206 -0.0746423  
     length 1.48116  
     axis 0 0 0   XYZ
    dof rx ry rz
    limits (-20.0 45.0)
           (-30.0 30.0)
           (-30.0 30.0)
  end
  begin
     id 17 
     name lclavicle
     direction 0.951444 0.305606 0.0368784  
     length 3.01855  
     axis 0 0 0   XYZ
    dof ry rz
    limits (-20.0 10.0)
           (0.0 20.0)
  end
  begin
     id 18 
     name lhumerus
     direction 1 -4.48977e-011 2.61664e-027   
     length 5.52731   
     axis 180 -30 -90   XYZ
    dof rx ry rz
    limits (-60.0 90.0)
           (-90.0 90.0)
           (-90.0 90.0)
  end
  begin
     id 19
     name lradius
     direction 1 -4.48944e-011 8.22157e-027   
     length 3.11059   
     axis 180 -30 -90   XYZ
    dof rx
    limits (-10.0 170.0)
  end
  begin
     id 20
     name lwrist
     direction 1 -4.48976e-011 1.5779e-026   
     length 1.5553   
     axis -1.15221e-014 90 90   XYZ
    dof ry
    limits (-180.0 0.0)
 end
  begin
     id 21 
     name lhand
     direction 1 -4.49025e-011 3.1558e-026   
     length 0.419626   
     axis -2.01367e-014 90 90   XYZ
    dof rx rz
    limits (-90.0 90.0)
           (-45.0 45.0)
  end
  begin
     id 22 
     name lfingers
     direction 1 -4.4904e-011 6.31161e-026   
     length 0.338313   
     axis -4.02734e-014 90 90   XYZ
    dof rx
    limits (0.0 90.0)
  end
  begin
     id 23
     name lthumb
     direction 0.707107 -6.35004e-011 0.707107   
     length 0.485752   
     axis -90 45 2.85299e-015   XYZ
    dof rx rz
    limits (-45.0 45.0)
           (-45.0 45.0)
  end
  begin
     id 24 
     name rclavicle
     direction -0.968876 0.223791 0.105816   
     length 3.04177  
     axis 0 0 0   XYZ 
    dof ry rz
    limits (-10.0 20.0)
           (-20.0 0.0)
  end
  begin
     id 25 
     name rhumerus
     direction -1 -4.48962e-011 -1.01384e-027  
     length 5.25396   
     axis 180 30 90   XYZ
    dof rx ry rz
    limits (-90.0 60.0)
           (-90.0 90.0)
           (-90.0 90.0)
  end
  begin
     id 26 
     name rradius
     direction -1 -4.48955e-011 8.88542e-027   
     length 3.10567   
     axis 180 30 90   XYZ
    dof rx
    limits (-10.0 170.0)
  end
  begin
     id 27 
     name rwrist
     direction -1 -4.48994e-011 1.5779e-026   
     length 1.55283   
     axis -1.15221e-014 -90 -90   XYZ
    dof ry
    limits (-180.0 0.0)
  end
  begin
     id 28
     name rhand
     direction -1 -4.48891e-011 3.1558e-026   
     length 0.498676   
     axis -2.01367e-014 -90 -90   XYZ
    dof rx rz
    limits (-90.0 90.0)
           (-45.0 45.0)
  end
  begin
     id 29
     name rfingers
     direction -1 -4.48972e-011 6.31161e-026   
     length 0.402045   
     axis -4.02734e-014 -90 -90   XYZ
    dof rx
    limits (0.0 90.0)
  end
  begin
     id 30
     name rthumb
     direction -0.707107 -6.34849e-011 0.707107   
     length 0.577259   
     axis -90 -45 -2.85299e-015   XYZ
    dof rx rz
    limits (-45.0 45.0)
           (-45.0 45.0)
  end
:hierarchy
  begin
    root lhipjoint rhipjoint lowerback
    lhipjoint lfemur
    lfemur ltibia
    ltibia lfoot
    lfoot ltoes
    rhipjoint rfemur
    rfemur rtibia
    rtibia rfoot
    rfoot rtoes
    lowerback upperback
    upperback thorax
    thorax lowerneck lclavicle rclavicle
    lowerneck upperneck
    upperneck head
    lclavicle lhumerus
    lhumerus lradius
    lradius lwrist
    lwrist lhand lthumb
    lhand lfingers
    rclavicle rhumerus
    rhumerus rradius
    rradius rwrist
    rwrist rhand rthumb
    rhand rfingers
  end

#!OML:ASF H:\Pregnant\Project 1\Capture day 1\Session 1\femalepreg.ASF
:FULLY-SPECIFIED
:DEGREES
71
root 20.1703 15.2594 21.778 205.763 -41.7244 -186.021
lowerback -15.4304 -0.955936 -7.46442
upperback -5.50832 -0.663261 -0.363234
thorax 2.8215 -0.504003 3.70951
lowerneck -18.3018 -3.54168 -2.0044
upperneck 28.3954 -7.25363 5.42087
head 12.8039 -3.07128 1.14918
rclavicle 6.59095e-015 -1.12313e-014
rhumerus -34.7703 -7.57954 -76.652
rradius 35.2637
rwrist -29.5066
rhand -25.8487 -31.0357
rfingers 7.12502
rthumb 0.691905 -61.0144
lclavicle 6.59095e-015 -1.12313e-014
lhumerus -36.1503 -17.4066 82.4149
lradius 32.1051
lwrist 39.7802
lhand -29.1623 -6.84592
lfingers 7.12502
lthumb -2.50843 23.1191
rfemur -59.2529 21.8412 -3.03463
rtibia 50.674
rfoot -15.6654 -10.2001
rtoes -6.48104
lfemur -29.3438 -17.4449 -20.0143
ltibia 23.9672
lfoot -18.1544 -3.23201
ltoes -13.3235
72
root 20.1796 15.2591 21.8419 205.638 -40.7509 -185.943
lowerback -15.4425 -0.87657 -7.46048
upperback -5.46844 -0.555785 -0.434003
thorax 2.85715 -0.454528 3.651
lowerneck -18.2843 -3.48739 -1.94527
upperneck 28.3501 -7.16353 5.33824
head 12.7709 -3.03798 1.12282
rclavicle 1.30297e-014 1.81391e-014
rhumerus -34.6886 -7.97899 -76.6664
rradius 34.4801
rwrist -29.9732
rhand -25.6876 -31.3937
rfingers 7.12502
rthumb 0.847494 -61.3718
lclavicle 1.30297e-014 1.81391e-014
lhumerus -35.8904 -16.6229 81.5195
lradius 32.303
lwrist 39.7739
lhand -29.6508 -7.02182
lfingers 7.12502
lthumb -2.98026 22.9371
rfemur -58.742 20.4345 -1.15224
rtibia 52.0189
rfoot -15.7736 -12.0622
rtoes -6.05356
lfemur -29.4049 -17.1108 -20.3149
ltibia 24.0698
lfoot -18.0566 -2.75854
ltoes -12.9495
73
root 20.1882 15.2602 21.9043 205.518 -39.792 -185.85
lowerback -15.4696 -0.797483 -7.4325
upperback -5.43977 -0.453063 -0.489114
thorax 2.88985 -0.407508 3.5947
lowerneck -18.2671 -3.42683 -1.90549
upperneck 28.313 -7.05981 5.25779
head 12.7416 -3.00037 1.10284
rclavicle 8.46201e-014 7.7526e-015
rhumerus -34.5959 -8.32683 -76.6788
rradius 33.6444
rwrist -30.2159
rhand -25.4751 -31.7203
rfingers 7.12502
rthumb 1.05272 -61.6975
lclavicle 8.46201e-014 7.7526e-015
lhumerus -35.6733 -15.7432 80.6433
lradius 32.5151
lwrist 39.8096
lhand -30.179 -7.19783
lfingers 7.12502
lthumb -3.49032 22.7533
rfemur -58.2221 19.0653 0.651703
rtibia 53.3027
rfoot -15.9111 -13.9229
rtoes -5.26582
lfemur -29.4619 -16.7888 -20.5851
ltibia 24.1331
lfoot -17.9439 -2.28901
ltoes -12.5762
74
root 20.1953 15.2628 21.9647 205.399 -38.8503 -185.736
lowerback -15.5234 -0.716203 -7.36214
upperback -5.42004 -0.353333 -0.53398
thorax 2.92826 -0.362592 3.52479
lowerneck -18.2571 -3.357 -1.87377
upperneck 28.2895 -6.94281 5.17994
head 12.7193 -2.9572 1.08726
rclavicle 4.0229e-014 -4.47266e-015
rhumerus -34.5078 -8.64561 -76.6925
rradius 32.7775
rwrist -30.1916
rhand -25.1964 -32.0617
rfingers 7.12502
rthumb 1.32192 -62.0373
lclavicle 4.0229e-014 -4.47266e-015
lhumerus -35.498 -14.7747 79.78
lradius 32.7342
lwrist 39.8861
lhand -30.7478 -7.37399
lfingers 7.12502
lthumb -4.03962 22.5675
rfemur -57.683 17.7409 2.37723
rtibia 54.4995
rfoot -16.0914 -15.7163
rtoes -4.21129
lfemur -29.5214 -16.4771 -20.8225
ltibia 24.1797
lfoot -17.8267 -1.8139
ltoes -12.2387
75
root 20.2005 15.2665 22.0228 205.282 -37.9248 -185.599
lowerback -15.6105 -0.625686 -7.24069
upperback -5.41126 -0.248491 -0.57623
thorax 2.973 -0.316032 3.42979
lowerneck -18.2561 -3.28129 -1.83404
upperneck 28.2853 -6.82137 5.09728
head 12.7063 -2.91172 1.06896
rclavicle -1.4033e-014 -1.73937e-014
rhumerus -34.4487 -8.96397 -76.7023
rradius 31.9101
rwrist -29.8795
rhand -24.8928 -32.3664
rfingers 7.12502
rthumb 1.61511 -62.3401
lclavicle -1.4033e-014 -1.73937e-014
lhumerus -35.3823 -13.7696 78.9424
lradius 32.9829
lwrist 40.0371
lhand -31.354 -7.54399
lfingers 7.12502
lthumb -4.62493 22.3855
rfemur -57.1133 16.4462 4.04091
rtibia 55.5928
rfoot -16.302 -17.3875
rtoes -3.18125
lfemur -29.594 -16.1598 -21.0315
ltibia 24.2336
lfoot -17.7206 -1.3447
ltoes -11.9329
76
root 20.2038 15.27 22.0786 205.163 -37.0126 -185.438
lowerback -15.7231 -0.517453 -7.06088
upperback -5.41146 -0.128637 -0.629051
thorax 3.02132 -0.262937 3.29353
lowerneck -18.2627 -3.20272 -1.77045
upperneck 28.2964 -6.70765 5.01807
head 12.701 -2.86675 1.04636
rclavicle -7.00281e-014 -1.43622e-014
rhumerus -34.4314 -9.29881 -76.7227
rradius 31.0562
rwrist -29.3243
rhand -24.6264 -32.5249
rfingers 7.12502
rthumb 1.87242 -62.4965
lclavicle -7.00281e-014 -1.43622e-014
lhumerus -35.3165 -12.7632 78.1207
lradius 33.256
lwrist 40.277
lhand -31.9814 -7.71666
lfingers 7.12502
lthumb -5.23077 22.1988
rfemur -56.5033 15.1711 5.65586
rtibia 56.5752
rfoot -16.5108 -18.8903
rtoes -2.37071
lfemur -29.6822 -15.8233 -21.2169
ltibia 24.3138
lfoot -17.6341 -0.892554
ltoes -11.6696
77
root 20.2057 15.2733 22.132 205.053 -36.1113 -185.262
lowerback -15.8625 -0.401013 -6.84587
upperback -5.42208 -0.00374018 -0.679801
thorax 3.07357 -0.208043 3.1408
lowerneck -18.2766 -3.11818 -1.6976
upperneck 28.3225 -6.58947 4.93527
head 12.7029 -2.81923 1.02135
rclavicle -6.9702e-014 3.21783e-014
rhumerus -34.4503 -9.59638 -76.7575
rradius 30.2236
rwrist -28.5804
rhand -24.4659 -32.4353
rfingers 7.12502
rthumb 2.02743 -62.4054
lclavicle -6.9702e-014 3.21783e-014
lhumerus -35.308 -11.7488 77.3328
lradius 33.5601
lwrist 40.615
lhand -32.6222 -7.89258
lfingers 7.12502
lthumb -5.84946 22.0067
rfemur -55.8651 13.91 7.21166
rtibia 57.4456
rfoot -16.6812 -20.1798
rtoes -1.76825
lfemur -29.7983 -15.4516 -21.3873
ltibia 24.4288
lfoot -17.5783 -0.480384
ltoes -11.3642
78
root 20.2066 15.2763 22.1834 204.951 -35.2161 -185.076
lowerback -16.0104 -0.273472 -6.59594
upperback -5.44424 0.128554 -0.732059
thorax 3.11884 -0.149769 2.96849
lowerneck -18.2934 -3.02782 -1.61756
upperneck 28.3574 -6.46812 4.85657
head 12.709 -2.76912 0.997075
rclavicle 7.44511e-015 -2.19657e-014
rhumerus -34.5132 -9.86532 -76.8062
rradius 29.442
rwrist -27.6714
rhand -24.4247 -32.1473
rfingers 7.12502
rthumb 2.06715 -62.1171
lclavicle 7.44511e-015 -2.19657e-014
lhumerus -35.3536 -10.7375 76.5759
lradius 33.8911
lwrist 41.0491
lhand -33.2783 -8.04417
lfingers 7.12502
lthumb -6.48291 21.8366
rfemur -55.2083 12.6637 8.69993
rtibia 58.2067
rfoot -16.8563 -21.2215
rtoes -1.2019
lfemur -29.9353 -15.0358 -21.5482
ltibia 24.5691
lfoot -17.5462 -0.113915
ltoes -11.0201
79
root 20.2066 15.2792 22.2331 204.862 -34.3148 -184.889
lowerback -16.157 -0.134579 -6.32228
upperback -5.48208 0.268768 -0.787086
thorax 3.14749 -0.0876805 2.78166
lowerneck -18.3033 -2.93191 -1.53114
upperneck 28.3996 -6.3416 4.77495
head 12.7164 -2.71689 0.971465
rclavicle -5.64844e-014 6.11263e-015
rhumerus -34.6217 -10.1117 -76.8506
rradius 28.7201
rwrist -26.5474
rhand -24.3596 -31.8078
rfingers 7.12502
rthumb 2.13003 -61.7769
lclavicle -5.64844e-014 6.11263e-015
lhumerus -35.4552 -9.72484 75.8503
lradius 34.2354
lwrist 41.5582
lhand -33.923 -8.18574
lfingers 7.12502
lthumb -7.10528 21.675
rfemur -54.542 11.4416 10.1005
rtibia 58.8621
rfoot -17.0283 -22.0163
rtoes -0.705127
lfemur -30.0778 -14.5822 -21.7104
ltibia 24.711
lfoot -17.5244 0.213163
ltoes -10.6586
80
root 20.2053 15.2826 22.2802 204.788 -33.4047 -184.721
lowerback -16.31 0.00388691 -6.05722
upperback -5.52332 0.408163 -0.829785
thorax 3.17712 -0.0261268 2.61297
lowerneck -18.3201 -2.82967 -1.46489
upperneck 28.446 -6.19744 4.68897
head 12.7269 -2.65919 0.95045
rclavicle 9.56263e-014 3.02401e-014
rhumerus -34.7472 -10.3144 -76.87
rradius 28.0619
rwrist -25.2139
rhand -24.2167 -31.5368
rfingers 7.12502
rthumb 2.26807 -61.5045
lclavicle 9.56263e-014 3.02401e-014
lhumerus -35.606 -8.68716 75.1723
lradius 34.5842
lwrist 42.1242
lhand -34.5291 -8.32285
lfingers 7.12502
lthumb -7.69032 21.5173
rfemur -53.8637 10.2384 11.3974
rtibia 59.4129
rfoot -17.2057 -22.5772
rtoes -0.196113
lfemur -30.1995 -14.0899 -21.8956
ltibia 24.8292
lfoot -17.5039 0.493778
ltoes -10.3187
81
root 20.2028 15.2864 22.3248 204.738 -32.4805 -184.583
lowerback -16.4613 0.149445 -5.80668
upperback -5.57466 0.556376 -0.877068
thorax 3.1953 0.0395666 2.44958
lowerneck -18.3383 -2.72585 -1.39861
upperneck 28.4982 -6.04935 4.5961
head 12.7398 -2.60067 0.927379
rclavicle 3.89773e-014 1.78409e-014
rhumerus -34.9121 -10.4908 -76.8745
rradius 27.487
rwrist -23.7499
rhand -24.0119 -31.3452
rfingers 7.12502
rthumb 2.46588 -61.3107
lclavicle 3.89773e-014 1.78409e-014
lhumerus -35.8075 -7.67114 74.5365
lradius 34.931
lwrist 42.7412
lhand -35.0594 -8.46876
lfingers 7.12502
lthumb -8.20209 21.352
rfemur -53.1804 9.05534 12.5778
rtibia 59.8595
rfoot -17.3597 -22.9341
rtoes 0.297013
lfemur -30.2886 -13.5665 -22.1144
ltibia 24.8972
lfoot -17.4674 0.731982
ltoes -10.0146
82
root 20.1993 15.2901 22.3667 204.723 -31.5444 -184.49
lowerback -16.6167 0.293424 -5.58847
upperback -5.63586 0.704921 -0.925977
thorax 3.20563 0.105019 2.30314
lowerneck -18.3617 -2.61743 -1.33521
upperneck 28.5549 -5.89107 4.49528
head 12.7554 -2.53881 0.90335
rclavicle 2.56184e-014 1.86361e-015
rhumerus -35.1042 -10.6289 -76.8631
rradius 26.9865
rwrist -22.1877
rhand -23.7291 -31.2265
rfingers 7.12502
rthumb 2.73902 -61.1887
lclavicle 2.56184e-014 1.86361e-015
lhumerus -36.0493 -6.66049 73.9393
lradius 35.2525
lwrist 43.3855
lhand -35.5328 -8.60133
lfingers 7.12502
lthumb -8.65895 21.2011
rfemur -52.4981 7.88397 13.6327
rtibia 60.2003
rfoot -17.4152 -23.1193
rtoes 0.665505
lfemur -30.3454 -13.019 -22.3774
ltibia 24.9018
lfoot -17.4068 0.926756
ltoes -9.78007
83
root 20.1947 15.2939 22.4053 204.742 -30.6011 -184.447
lowerback -16.7805 0.419861 -5.41839
upperback -5.70261 0.835745 -0.962536
thorax 3.21547 0.161397 2.19397
lowerneck -18.4074 -2.49877 -1.29065
upperneck 28.6251 -5.70659 4.37893
head 12.7803 -2.46863 0.880631
rclavicle 3.02525e-014 8.39865e-015
rhumerus -35.3077 -10.6779 -76.8472
rradius 26.5623
rwrist -20.6239
rhand -23.476 -31.0832
rfingers 7.12502
rthumb 2.98338 -61.042
lclavicle 3.02525e-014 8.39865e-015
lhumerus -36.3432 -5.63808 73.3895
lradius 35.5526
lwrist 44.0486
lhand -35.9435 -8.71328
lfingers 7.12502
lthumb -9.05527 21.0723
rfemur -51.8087 6.72342 14.5585
rtibia 60.4286
rfoot -17.2958 -23.1672
rtoes 0.787095
lfemur -30.3659 -12.4528 -22.6912
ltibia 24.842
lfoot -17.325 1.08203
ltoes -9.59288
84
root 20.1896 15.2972 22.4416 204.795 -29.6481 -184.449
lowerback -16.941 0.553241 -5.27205
upperback -5.78497 0.976076 -1.01815
thorax 3.20659 0.221792 2.08006
lowerneck -18.4447 -2.3773 -1.22781
upperneck 28.6891 -5.5227 4.26037
head 12.8009 -2.39743 0.853942
rclavicle -1.82913e-014 1.39646e-014
rhumerus -35.5463 -10.699 -76.8437
rradius 26.2034
rwrist -19.141
rhand -23.3016 -30.8519
rfingers 7.12502
rthumb 3.15186 -60.8084
lclavicle -1.82913e-014 1.39646e-014
lhumerus -36.673 -4.69251 72.8734
lradius 35.8235
lwrist 44.7409
lhand -36.2655 -8.78843
lfingers 7.12502
lthumb -9.36599 20.9835
rfemur -51.1172 5.58804 15.3567
rtibia 60.5373
rfoot -16.9705 -23.1486
rtoes 0.527528
lfemur -30.3649 -11.8708 -23.049
ltibia 24.7258
lfoot -17.2229 1.2076
ltoes -9.45681
85
root 20.184 15.3001 22.4752 204.866 -28.6848 -184.479
lowerback -17.1106 0.674919 -5.15337
upperback -5.8594 1.10565 -1.06121
thorax 3.21139 0.276617 1.99344
lowerneck -18.5054 -2.24663 -1.17864
upperneck 28.7445 -5.31231 4.12846
head 12.8221 -2.31647 0.828745
rclavicle 1.14177e-014 8.94531e-016
rhumerus -35.7627 -10.6257 -76.8599
rradius 25.8965
rwrist -17.8085
rhand -23.2153 -30.4976
rfingers 7.12502
rthumb 3.23522 -60.4528
lclavicle 1.14177e-014 8.94531e-016
lhumerus -37.0158 -3.7537 72.4021
lradius 36.053
lwrist 45.4351
lhand -36.4853 -8.81561
lfingers 7.12502
lthumb -9.57811 20.9467
rfemur -50.4067 4.50209 16.039
rtibia 60.5142
rfoot -16.464 -23.0971
rtoes -0.741045
lfemur -30.3384 -11.28 -23.4353
ltibia 24.5659
lfoot -17.1106 1.32412
ltoes -9.35644
